<?xml version="1.0" encoding="UTF-8"?> <!-- Generator: Adobe Illustrator 25.0.1, SVG Export Plug-In . SVG Version: 6.00 Build 0) --> <svg xmlns="http://www.w3.org/2000/svg" xmlns:xlink="http://www.w3.org/1999/xlink" version="1.1" id="Capa_1" x="0px" y="0px" viewBox="0 0 200 200" style="enable-background:new 0 0 200 200;" xml:space="preserve"> <style type="text/css"> .st0{fill:#F5963C;} .st1{fill:#FFFFFF;} </style> <circle class="st0" cx="100" cy="100" r="96.4"></circle> <path class="st1" d="M124.3,163.4c-0.5,0-0.9-0.2-1.3-0.5l-16.8-15.6h-24c-6.6,0-12-5.4-12-12v-5.5h-5.5c-6.6,0-12-5.4-12-12V64.7 c0-6.6,5.4-12,12-12h9.1V38.6c0-0.5,0.2-1,0.5-1.3c0.4-0.4,0.9-0.6,1.4-0.6c0.5,0,0.9,0.2,1.3,0.5l16.8,15.6h24c6.6,0,12,5.4,12,12 v5.5h5.5c6.6,0,12,5.4,12,12v53.1c0,6.6-5.4,12-12,12h-9.1v14.2c0,0.7-0.4,1.4-1.1,1.7C124.8,163.3,124.6,163.4,124.3,163.4 L124.3,163.4z M74,135.3c0,4.5,3.7,8.2,8.2,8.2h24.7c0.5,0,0.9,0.2,1.3,0.5l14.2,13.1v-11.7c0-1,0.8-1.9,1.9-1.9h11 c4.5,0,8.2-3.7,8.2-8.2l0-53.1c0-4.5-3.7-8.2-8.2-8.2h-5.5v43.9c0,6.6-5.4,12-12,12H74V135.3z M64.7,56.5c-4.5,0-8.2,3.7-8.2,8.2 v53.1c0,4.5,3.7,8.2,8.2,8.2l5.5-0.1V82.1c0-6.6,5.4-12,12-12H126v-5.5c0-4.5-3.7-8.2-8.2-8.2H93.1c-0.5,0-0.9-0.2-1.3-0.5 L77.6,42.8v11.8c0,1-0.8,1.9-1.9,1.9H64.7z M82.2,74c-4.5,0-8.2,3.7-8.2,8.2V126h43.8c4.5,0,8.2-3.7,8.2-8.2V73.9L82.2,74z"></path> </svg> 