<?xml version="1.0" encoding="UTF-8"?> <!-- Generator: Adobe Illustrator 25.0.1, SVG Export Plug-In . SVG Version: 6.00 Build 0) --> <svg xmlns="http://www.w3.org/2000/svg" xmlns:xlink="http://www.w3.org/1999/xlink" version="1.1" id="Capa_1" x="0px" y="0px" viewBox="0 0 200 200" style="enable-background:new 0 0 200 200;" xml:space="preserve"> <style type="text/css"> .st0{fill:#8C8C8C;} .st1{fill:#F5963C;} .st2{fill:#FFFFFF;} </style> <circle class="st0" cx="389.3" cy="53.2" r="3.7"></circle> <circle class="st0" cx="389.3" cy="69.3" r="3.7"></circle> <path d="M394.5,52.3c0.1,0.2,0.8,0.9,1.4,3C395.5,54.3,395,53.3,394.5,52.3z"></path> <path d="M397.1,78.7c0,1.1,0,1.3,0,1.3l-0.1,0C397.1,79.6,397.1,79.2,397.1,78.7z"></path> <circle class="st1" cx="100" cy="100" r="96.4"></circle> <g> <path class="st2" d="M61.3,104.3c-11.7,0-21.2,9.5-21.2,21.2c0,4.3,1.3,8.4,3.6,11.9l14.9,25.9c0.5,0.9,1.5,1.5,2.6,1.5 c1.1,0,2-0.6,2.6-1.5l15-26c2.2-4.1,3.6-7.5,3.6-11.8C82.5,113.8,73,104.3,61.3,104.3z M79.7,125.5c0,3.7-1.3,6.7-3.3,10.5 l-14.9,25.9c0,0.1-0.1,0.1-0.1,0.1c0,0-0.1,0-0.1-0.1L46.3,136l-0.1-0.1c-2.1-3.1-3.2-6.7-3.2-10.4c0-10.1,8.2-18.3,18.3-18.3 C71.4,107.1,79.7,115.4,79.7,125.5z"></path> <path class="st2" d="M143.9,27.2c-8.8,0-16,7.2-16,16c0,3.2,1,6.3,2.7,9l11.2,19.4c0.4,0.7,1.2,1.1,2,1.1c0.8,0,1.6-0.4,2-1.1 l11.2-19.5c1.7-3.1,2.7-5.7,2.7-8.9C159.9,34.4,152.7,27.2,143.9,27.2z M144.2,70.6l-0.3-0.2L132.6,51l0-0.1 c-1.6-2.3-2.4-5-2.4-7.7c0-7.6,6.1-13.7,13.7-13.7c7.6,0,13.7,6.1,13.7,13.7c0,2.7-0.9,5-2.4,7.8L144,70.4L144.2,70.6z"></path> <path class="st2" d="M65.9,172.8c-3,0-4.7-0.1-4.7-0.1c-1,0-1.8-0.9-1.7-1.9s0.9-1.8,1.9-1.8c0,0,1.7,0.1,4.5,0.1 c3.2,0,6.5-0.1,9.9-0.2c1,0,1.8,0.7,1.9,1.7c0,1-0.7,1.8-1.7,1.9C72.6,172.7,69.2,172.8,65.9,172.8z M90.4,171.5 c-0.9,0-1.7-0.7-1.8-1.6c-0.1-1,0.6-1.9,1.6-2c5.1-0.5,9.9-1.2,14.3-2c1-0.2,1.9,0.5,2.1,1.5c0.2,1-0.5,1.9-1.4,2.1 c-4.5,0.9-9.4,1.6-14.6,2.1C90.5,171.5,90.5,171.5,90.4,171.5z M118.9,165.9c-0.8,0-1.5-0.5-1.7-1.3c-0.3-0.9,0.2-2,1.1-2.3 c5.1-1.7,9.3-3.7,12.7-5.9c0.8-0.6,2-0.3,2.5,0.5c0.6,0.8,0.3,2-0.5,2.5c-3.6,2.4-8.2,4.6-13.6,6.4 C119.3,165.8,119.1,165.9,118.9,165.9z M141.2,148.8c-0.2,0-0.3,0-0.5-0.1c-1-0.3-1.5-1.3-1.3-2.3c0.3-0.9,0.4-1.9,0.4-2.9 c0-2.8-1.2-5.9-3.5-9.1c-0.6-0.8-0.4-1.9,0.4-2.5c0.8-0.6,1.9-0.4,2.5,0.4c2.8,3.8,4.2,7.6,4.2,11.3c0,1.3-0.2,2.6-0.6,3.9 C142.7,148.3,142,148.8,141.2,148.8z M127.4,125.1c-0.4,0-0.8-0.1-1.1-0.4c-3.5-2.6-7.5-5.2-12.1-7.7c-0.9-0.5-1.2-1.6-0.7-2.5 c0.5-0.9,1.6-1.2,2.5-0.7c4.7,2.6,8.9,5.3,12.5,8c0.8,0.6,1,1.7,0.4,2.5C128.5,124.9,128,125.1,127.4,125.1z M102.4,110.4 c-0.4,0-0.8-0.1-1.2-0.4c-2.7-2.3-7.6-7-9.2-12.3c-0.3-1,0.2-2,1.2-2.3c1-0.3,2,0.2,2.3,1.2c1.4,4.6,6.1,9,8.1,10.6 c0.8,0.7,0.9,1.8,0.2,2.6C103.4,110.2,102.9,110.4,102.4,110.4z M99.2,86.8c-0.6,0-1.2-0.3-1.5-0.9c-0.5-0.9-0.3-2,0.6-2.5 c3.4-2.1,8.2-3.9,14.1-5.2c1-0.2,1.9,0.4,2.2,1.4c0.2,1-0.4,1.9-1.4,2.2c-5.6,1.3-10,2.9-13,4.8C99.9,86.7,99.5,86.8,99.2,86.8z M127.1,79.5c-0.9,0-1.7-0.7-1.8-1.6c-0.1-1,0.6-1.9,1.6-2c4.4-0.5,9.3-0.8,14.6-1c0,0,0,0,0.1,0c1,0,1.8,0.8,1.8,1.7 c0,1-0.7,1.8-1.7,1.9c-5.2,0.2-10,0.6-14.4,1C127.2,79.5,127.2,79.5,127.1,79.5z"></path> <path class="st2" d="M61.1,115.6c-5.6,0-10.2,4.6-10.2,10.2c0,5.6,4.6,10.2,10.2,10.2s10.2-4.6,10.2-10.2 C71.3,120.2,66.7,115.6,61.1,115.6z M61.1,133c-3.9,0-7.1-3.2-7.1-7.1c0-3.9,3.2-7.1,7.1-7.1s7.1,3.2,7.1,7.1 C68.2,129.8,65,133,61.1,133z"></path> <path class="st2" d="M143.9,51.2c-4.1,0-7.5-3.4-7.5-7.5s3.4-7.5,7.5-7.5c4.1,0,7.5,3.4,7.5,7.5S148.1,51.2,143.9,51.2z M143.9,38.6c-2.8,0-5.1,2.3-5.1,5.1c0,2.8,2.3,5.1,5.1,5.1s5.1-2.3,5.1-5.1C149,40.9,146.7,38.6,143.9,38.6z"></path> </g> </svg> 