<?xml version="1.0" encoding="UTF-8"?> <!-- Generator: Adobe Illustrator 25.0.1, SVG Export Plug-In . SVG Version: 6.00 Build 0) --> <svg xmlns="http://www.w3.org/2000/svg" xmlns:xlink="http://www.w3.org/1999/xlink" version="1.1" id="Capa_1" x="0px" y="0px" viewBox="0 0 1015.6 447.1" style="enable-background:new 0 0 1015.6 447.1;" xml:space="preserve"> <style type="text/css"> .st0{fill:#F39631;} .st1{fill:#EBC8A1;} </style> <g> <g> <circle class="st0" cx="28.4" cy="360.9" r="26"></circle> <g> <path class="st1" d="M99.4,161.4c-6.8,0-13.5,0.5-20.1,1.6v54.2c5.4-1.3,11-2,16.7-2c40,0,72.5,32.5,72.5,72.5 c0,40-32.5,72.5-72.5,72.5c-5.8,0-11.4-0.7-16.7-2v59.9c6.6,1,13.3,1.6,20.1,1.6c71.3,0,129.1-57.8,129.1-129.1 C228.5,219.2,170.7,161.4,99.4,161.4z"></path> </g> <g> <path class="st1" d="M0,0v217.7c17.5-25.6,36.9-44.6,67.9-52.4c3.8-0.9,7.6-1.8,11.5-2.4v-48.6C79.3,60,49.9,14.2,0,0z"></path> </g> </g> <g> <circle class="st0" cx="281.5" cy="360.9" r="26"></circle> <g> <path class="st1" d="M352.5,161.4c-6.8,0-13.5,0.5-20.1,1.6v54.2c5.4-1.3,11-2,16.7-2c40,0,72.5,32.5,72.5,72.5 c0,40-32.5,72.5-72.5,72.5c-5.8,0-11.4-0.7-16.7-2v59.9c6.6,1,13.3,1.6,20.1,1.6c71.3,0,129.1-57.8,129.1-129.1 C481.6,219.2,423.8,161.4,352.5,161.4z"></path> </g> <g> <path class="st1" d="M253.1,0v217.7c17.5-25.6,36.9-44.6,67.9-52.4c3.8-0.9,7.6-1.8,11.5-2.4v-48.6C332.4,60,302.9,14.2,253.1,0z "></path> </g> </g> <g> <path class="st0" d="M579.5,108h8.2v0.9h-25V108h8.2V56.1h-8.2v-0.9h25v0.9h-8.2V108z"></path> <path class="st0" d="M635.9,108v0.9h-20.9V108h6.6V82.3c0-5.7-2.6-8.1-6.6-8.1c-8,0-11.4,9.8-11.4,14.6V108h6.6v0.9h-21V108h7 V74.4h-7v-0.9c5.9,0,10-0.2,14.3-1V84c1.4-4.9,4.9-11.5,13.8-11.5c7.4,0,11.6,4.6,11.6,12.6V108H635.9z"></path> <path class="st0" d="M657.8,105.5c-1.7,2.3-4.5,4.3-8.9,4.3c-7.1,0-9.5-4.5-9.5-11.3V74.4h-6.5v-0.9h6.5V67c2.6-0.7,5.9-3,7.4-5.1 v11.5h10.7v0.9h-10.7v28.3c0,4.2,1.9,5.7,4.4,5.7c2.7,0,4.8-1.9,5.9-3.3L657.8,105.5z"></path> <path class="st0" d="M694.1,102.2c-2.9,4.3-8.7,7.7-15.4,7.7c-10.1,0-20.1-7.5-20.1-18.6c0-10.8,9.4-18.7,19.9-18.7 c10.7,0,15.7,7.7,15.7,15.6c0,0.4,0,0.8,0,1.2h-27.5c-0.3,11.8,4,19.2,13.5,19.2c5.6,0,10.4-3,13-6.9L694.1,102.2z M686.1,88.5 c0-0.5,0-0.9,0-1.4c0-6.7-2.4-13.7-8.9-13.7c-6.6,0-10,7-10.5,15.1H686.1z"></path> <path class="st0" d="M724.7,82c-2.4,0-4.4-1.6-4.4-3.7c0-2.1,1.9-3.7,4.2-3.7c1.5,0,2.9,0.7,3.7,1.8c-0.6-1.5-2.2-3-5.2-3 c-8.6,0-12,11.8-12,21.3V108h7.4v0.9h-21.9V108h7V74.4h-7v-0.9c5.9,0,10.1-0.2,14.5-1v15c1.1-7.6,4.9-14.9,12-14.9 c4.1,0,6.4,2.3,6.4,5.1C729.3,80.3,727.2,82,724.7,82z"></path> <path class="st0" d="M776.4,108v0.9h-20.9V108h6.6V82.3c0-5.7-2.6-8.1-6.6-8.1c-8,0-11.4,9.8-11.4,14.6V108h6.6v0.9h-21V108h7 V74.4h-7v-0.9c5.9,0,10-0.2,14.3-1V84c1.4-4.9,4.9-11.5,13.8-11.5c7.4,0,11.6,4.6,11.6,12.6V108H776.4z"></path> <path class="st0" d="M816.3,105.9c-1.4,2.1-3.9,3.9-7.4,3.9c-4.5,0-6.5-2.7-6.7-6.2c-1.3,2.9-6.1,6.2-12.1,6.2 c-5.5,0-12.4-2.6-12.4-9.2c0-4.8,3.3-6.6,10.5-8.2c7-1.6,14.1-3.5,14.1-10.6c0-4.7-3.1-8.2-10.1-8.2c-7,0-10.9,3.4-10.9,6.9 c0.4-1.5,1.7-2.8,3.9-2.8c2.4,0,4,1.6,4,3.6c0,2-1.6,3.7-4.1,3.7c-2.5,0-4.7-1.6-4.7-4.5c0-4.5,5.2-7.9,13.1-7.9 c10,0,16,5.1,16,14.4v19.1c0,1.2,0.7,2,2.1,2c1.5,0,3-1,4.1-2.8L816.3,105.9z M787.7,93.4c-1.4,1-2.5,3.3-2.5,6.8 c0,6.1,3.6,8.2,7.4,8.2c5.4,0,9.1-4.3,9.6-6.6V86C800.3,89.9,795.5,91.8,787.7,93.4z"></path> <path class="st0" d="M839.1,105.5c-1.7,2.3-4.5,4.3-8.9,4.3c-7.1,0-9.5-4.5-9.5-11.3V74.4h-6.5v-0.9h6.5V67c2.6-0.7,5.9-3,7.4-5.1 v11.5h10.7v0.9h-10.7v28.3c0,4.2,1.9,5.7,4.4,5.7c2.7,0,4.8-1.9,5.9-3.3L839.1,105.5z"></path> <path class="st0" d="M861.1,108v0.9h-21.3V108h7V74.4h-7v-0.9c5.9,0,10-0.2,14.3-1V108H861.1z M850.4,65.1c-2.4,0-4.3-1.6-4.3-3.7 c0-2.1,1.9-3.7,4.3-3.7c2.3,0,4.3,1.6,4.3,3.7C854.7,63.6,852.7,65.1,850.4,65.1z"></path> <path class="st0" d="M901.4,91.2c0,10.8-9.7,18.6-19.9,18.6c-10.3,0-19.9-7.8-19.9-18.6c0-10.9,9.7-18.7,19.9-18.7 C891.7,72.6,901.4,80.3,901.4,91.2z M881.5,73.4c-8.9,0-11.9,8.4-11.9,17.4c0,10.2,3.3,18.2,11.9,18.2c8.5,0,11.8-8,11.8-18 C893.3,81.8,890.4,73.4,881.5,73.4z"></path> <path class="st0" d="M950,108v0.9h-20.9V108h6.6V82.3c0-5.7-2.6-8.1-6.6-8.1c-8,0-11.4,9.8-11.4,14.6V108h6.6v0.9h-21V108h7V74.4 h-7v-0.9c5.9,0,10-0.2,14.3-1V84c1.4-4.9,4.9-11.5,13.8-11.5c7.4,0,11.6,4.6,11.6,12.6V108H950z"></path> <path class="st0" d="M989.9,105.9c-1.4,2.1-3.9,3.9-7.4,3.9c-4.5,0-6.5-2.7-6.7-6.2c-1.3,2.9-6.1,6.2-12.1,6.2 c-5.5,0-12.4-2.6-12.4-9.2c0-4.8,3.3-6.6,10.5-8.2c7-1.6,14.1-3.5,14.1-10.6c0-4.7-3.1-8.2-10.1-8.2c-7,0-10.9,3.4-10.9,6.9 c0.4-1.5,1.7-2.8,3.9-2.8c2.4,0,4,1.6,4,3.6c0,2-1.6,3.7-4.1,3.7c-2.5,0-4.7-1.6-4.7-4.5c0-4.5,5.2-7.9,13.1-7.9 c10,0,16,5.1,16,14.4v19.1c0,1.2,0.7,2,2.1,2c1.5,0,3-1,4.1-2.8L989.9,105.9z M961.2,93.4c-1.4,1-2.5,3.3-2.5,6.8 c0,6.1,3.6,8.2,7.4,8.2c5.4,0,9.1-4.3,9.6-6.6V86C973.9,89.9,969,91.8,961.2,93.4z"></path> <path class="st0" d="M1010.6,108v0.9h-21.3V108h7V56.1h-7v-0.9c5.9,0,10-0.2,14.3-1V108H1010.6z"></path> <path class="st1" d="M618.6,199.7c-0.4,6.1-2.6,9.7-7.9,9.7c-6.8,0-9.2-4.8-10.4-14.7c-1.5-12-3-12.3-20.7-12.8v25.6h8.2v0.9h-25 v-0.9h8.2v-51.9h-8.2v-0.9h25.2c13.4,0,21.6,5.2,21.6,13.6c0,9.7-11.6,12.8-21.2,13.3c-0.1,0-0.1,0,0,0 c17.5,0.8,20.7,4.8,21.2,17.1c0.2,5.2,0.7,8.9,3.6,8.9c2.6,0,4.2-3.1,4.5-8L618.6,199.7z M584.8,181c2.9,0,6.4-0.3,9-1.2 c4.8-1.8,6.2-6.2,6.2-11.1c0-8.7-4.7-13.2-14.9-13.2h-5.6V181C581,181,583.1,181,584.8,181z"></path> <path class="st1" d="M661,201.7c-2.9,4.3-8.7,7.7-15.4,7.7c-10.1,0-20.1-7.5-20.1-18.6c0-10.8,9.4-18.7,19.9-18.7 c10.7,0,15.7,7.7,15.7,15.6c0,0.4,0,0.8,0,1.2h-27.5c-0.3,11.8,4,19.2,13.5,19.2c5.6,0,10.4-3,13-6.9L661,201.7z M653,187.9 c0-0.5,0-0.9,0-1.4c0-6.7-2.4-13.7-8.9-13.7c-6.6,0-10,7-10.5,15.1H653z"></path> <path class="st1" d="M709.9,205.4c-1.4,2.1-3.9,3.9-7.4,3.9c-4.5,0-6.5-2.7-6.7-6.2c-1.3,2.9-6.1,6.2-12.1,6.2 c-5.5,0-12.4-2.6-12.4-9.2c0-4.8,3.3-6.6,10.5-8.2c7-1.6,14.1-3.5,14.1-10.6c0-4.7-3.1-8.2-10.1-8.2c-7,0-10.9,3.4-10.9,6.9 c0.4-1.5,1.7-2.8,3.9-2.8c2.4,0,4,1.6,4,3.6c0,2-1.6,3.7-4.1,3.7c-2.5,0-4.7-1.6-4.7-4.5c0-4.5,5.2-7.9,13.1-7.9 c10,0,16,5.1,16,14.4v19.1c0,1.2,0.7,2,2.1,2c1.5,0,3-1,4.1-2.8L709.9,205.4z M681.2,192.8c-1.4,1-2.5,3.3-2.5,6.8 c0,6.1,3.6,8.2,7.4,8.2c5.4,0,9.1-4.3,9.6-6.6v-15.8C693.8,189.4,689,191.2,681.2,192.8z"></path> <path class="st1" d="M736.6,207.4v0.9h-21.3v-0.9h7v-51.9h-7v-0.9c5.9,0,10-0.2,14.3-1v53.8H736.6z"></path> <path class="st1" d="M816.1,189.5l-1,18.8h-46.6v-0.9h8.2v-51.9h-8.2v-0.9h46.1l0.7,17.9h-1l-0.2-3.6c-0.4-6.9-3.3-13.4-17.3-13.4 h-11.5v25.4h3.7c2.3,0,4.3-0.1,5.6-0.4c4-0.8,6.1-4.9,6.3-9.6h1v20.9h-1c-0.3-5.8-2.2-8.9-6.1-9.7c-1.6-0.3-3.8-0.4-5.7-0.4h-3.7 v25.7h11.6c12.9,0,17.3-5.7,17.8-14l0.3-3.9H816.1z"></path> <path class="st1" d="M838.4,172.9c-4.9,0-8.4,2.5-8.4,5.9c0,4.2,4.8,6,11.8,8.1c7.1,2.1,13.3,4.2,13.3,11.1 c0,6.7-6,11.3-13.4,11.3c-4.5,0-7.8-1.7-10.1-3.6c-1.9,0.4-3.5,1.3-4.2,3.1h-0.8l-0.7-12.6l1,0c0.7,5.3,6.4,12.2,14.8,12.2 c5.6,0,9.3-2.8,9.3-6.9c0-4.6-4.4-6.1-11.9-8.2c-7.4-2.2-12.4-5.4-12.4-11.5c0-6.6,5.9-9.9,11.8-9.9c4.2,0,7.3,1.7,8.8,2.8 c2.2,0,3.8-1.1,4.5-2.8h0.8l0.7,12.1l-1,0C851.2,177.9,845.3,172.9,838.4,172.9z"></path> <path class="st1" d="M888.1,205c-1.7,2.3-4.5,4.3-8.9,4.3c-7.1,0-9.5-4.5-9.5-11.3v-24.1h-6.5V173h6.5v-6.5c2.6-0.7,5.9-3,7.4-5.1 V173h10.7v0.9H877v28.3c0,4.2,1.9,5.7,4.4,5.7c2.7,0,4.8-1.9,5.9-3.3L888.1,205z"></path> <path class="st1" d="M934.9,205.4c-1.4,2.1-3.9,3.9-7.4,3.9c-4.5,0-6.5-2.7-6.7-6.2c-1.3,2.9-6.1,6.2-12.1,6.2 c-5.5,0-12.4-2.6-12.4-9.2c0-4.8,3.3-6.6,10.5-8.2c7-1.6,14.1-3.5,14.1-10.6c0-4.7-3.1-8.2-10.1-8.2c-7,0-10.9,3.4-10.9,6.9 c0.4-1.5,1.7-2.8,3.9-2.8c2.4,0,4,1.6,4,3.6c0,2-1.6,3.7-4.1,3.7c-2.5,0-4.7-1.6-4.7-4.5c0-4.5,5.2-7.9,13.1-7.9 c10,0,16,5.1,16,14.4v19.1c0,1.2,0.7,2,2.1,2c1.5,0,3-1,4.1-2.8L934.9,205.4z M906.2,192.8c-1.4,1-2.5,3.3-2.5,6.8 c0,6.1,3.6,8.2,7.4,8.2c5.4,0,9.1-4.3,9.6-6.6v-15.8C918.9,189.4,914,191.2,906.2,192.8z"></path> <path class="st1" d="M963.8,205c-1.7,2.3-4.5,4.3-8.9,4.3c-7.1,0-9.5-4.5-9.5-11.3v-24.1h-6.5V173h6.5v-6.5c2.6-0.7,5.9-3,7.4-5.1 V173h10.7v0.9h-10.7v28.3c0,4.2,1.9,5.7,4.4,5.7c2.7,0,4.8-1.9,5.9-3.3L963.8,205z"></path> <path class="st1" d="M1006.1,201.7c-2.9,4.3-8.7,7.7-15.4,7.7c-10.1,0-20.1-7.5-20.1-18.6c0-10.8,9.4-18.7,19.9-18.7 c10.7,0,15.7,7.7,15.7,15.6c0,0.4,0,0.8,0,1.2h-27.5c-0.3,11.8,4,19.2,13.5,19.2c5.6,0,10.4-3,13-6.9L1006.1,201.7z M998.2,187.9 c0-0.5,0-0.9,0-1.4c0-6.7-2.4-13.7-8.9-13.7c-6.6,0-10,7-10.5,15.1H998.2z"></path> <path class="st0" d="M580.1,306.9h8.4v0.9h-25.7v-0.9h8.4v-53.3h-8.4v-0.9h25.7v0.9h-8.4V306.9z"></path> <path class="st0" d="M643.9,306.9v0.9h-21.5v-0.9h6.7v-26.4c0-5.9-2.7-8.3-6.7-8.3c-8.2,0-11.7,10.1-11.7,15v19.7h6.8v0.9H596 v-0.9h7.2v-34.5H596v-0.9c6.1,0,10.3-0.2,14.7-1.1v11.9c1.4-5,5.1-11.8,14.2-11.8c7.7,0,11.9,4.7,11.9,13v23.4H643.9z"></path> <path class="st0" d="M689.5,271.5v0.9h-0.2c-4.2,0-7.2,4.1-10.8,11.9l-10.9,24.1h-1l-15.9-36h-5.1v-0.9h19.7v0.9h-6.7l11.8,27.4 l6.9-15.3c1.3-2.9,2-5.4,2-7.3c0-3-1.8-4.7-5.6-4.7h-0.5v-0.9H689.5z"></path> <path class="st0" d="M730.1,301c-3,4.4-9,7.9-15.8,7.9c-10.4,0-20.6-7.7-20.6-19.1c0-11.1,9.6-19.2,20.4-19.2c11,0,16.2,8,16.2,16 c0,0.4,0,0.8,0,1.2H702c-0.3,12.1,4.1,19.7,13.9,19.7c5.8,0,10.7-3.1,13.4-7L730.1,301z M721.9,286.9c0-0.5,0-0.9,0-1.4 c0-6.9-2.5-14.1-9.1-14.1c-6.8,0-10.3,7.2-10.8,15.5H721.9z"></path> <path class="st0" d="M753.6,271.4c-5,0-8.7,2.6-8.7,6.1c0,4.3,4.9,6.1,12.1,8.3c7.2,2.2,13.7,4.3,13.7,11.5 c0,6.9-6.2,11.6-13.8,11.6c-4.6,0-8-1.8-10.4-3.7c-2,0.4-3.6,1.4-4.3,3.2h-0.8l-0.8-12.9l1,0c0.8,5.5,6.6,12.6,15.2,12.6 c5.8,0,9.5-2.9,9.5-7c0-4.8-4.5-6.2-12.2-8.5c-7.7-2.3-12.7-5.6-12.7-11.8c0-6.8,6-10.2,12.1-10.2c4.3,0,7.5,1.8,9,2.9 c2.3,0,3.9-1.2,4.6-2.9h0.8l0.7,12.4l-1,0C766.7,276.6,760.7,271.4,753.6,271.4z"></path> <path class="st0" d="M804.3,304.4c-1.7,2.3-4.6,4.5-9.1,4.5c-7.3,0-9.8-4.6-9.8-11.7v-24.8h-6.7v-0.9h6.7v-6.7 c2.7-0.7,6.1-3.1,7.6-5.2v11.9h11v0.9h-11v29.1c0,4.3,1.9,5.9,4.5,5.9c2.8,0,5-2,6-3.4L804.3,304.4z"></path> <path class="st0" d="M881.6,306.9v0.9h-21v-0.9h6.3v-26.4c0-6.1-2-8.3-5.8-8.3c-7.8,0-11.1,9.6-11.1,15v19.8h6v0.9h-19.8v-0.9h6.3 v-26.4c0-6.2-2.4-8.3-5.8-8.3c-7.7,0-11.1,10.2-11.1,15v19.8h6.1v0.9h-20.8v-0.9h7.2v-34.5h-7.2v-0.9c6,0,10.3-0.2,14.7-1.1v11.7 c1.5-5.3,5.2-11.6,13.5-11.6c6.7,0,10.5,4.1,10.9,11.6c1.4-5.4,5.2-11.6,13.5-11.6c7.2,0,11,4.7,11,13v23.4H881.6z"></path> <path class="st0" d="M924.3,301c-3,4.4-9,7.9-15.8,7.9c-10.4,0-20.6-7.7-20.6-19.1c0-11.1,9.6-19.2,20.4-19.2c11,0,16.2,8,16.2,16 c0,0.4,0,0.8,0,1.2h-28.3c-0.3,12.1,4.1,19.7,13.9,19.7c5.8,0,10.7-3.1,13.4-7L924.3,301z M916.1,286.9c0-0.5,0-0.9,0-1.4 c0-6.9-2.5-14.1-9.1-14.1c-6.8,0-10.3,7.2-10.8,15.5H916.1z"></path> <path class="st0" d="M980.5,306.9v0.9h-21.5v-0.9h6.7v-26.4c0-5.9-2.7-8.3-6.7-8.3c-8.2,0-11.7,10.1-11.7,15v19.7h6.8v0.9h-21.6 v-0.9h7.2v-34.5h-7.2v-0.9c6.1,0,10.3-0.2,14.7-1.1v11.9c1.4-5,5.1-11.8,14.2-11.8c7.7,0,11.9,4.7,11.9,13v23.4H980.5z"></path> <path class="st0" d="M1008.9,304.4c-1.7,2.3-4.6,4.5-9.1,4.5c-7.3,0-9.8-4.6-9.8-11.7v-24.8h-6.7v-0.9h6.7v-6.7 c2.7-0.7,6.1-3.1,7.6-5.2v11.9h11v0.9h-11v29.1c0,4.3,1.9,5.9,4.5,5.9c2.8,0,5-2,6-3.4L1008.9,304.4z"></path> <path class="st1" d="M592.4,353.1c-13.3,0-18.7,13-18.7,27.5c0,13.2,4.6,27.2,18.9,27.2c11.4,0,18.6-9.6,20-19h1l-0.9,20h-0.9 c-0.6-3-3.1-5.2-5.5-5.7c-4.1,4-8.9,5.7-14.2,5.7c-16.4,0-27.9-15-27.9-28.5c0-13.9,12.2-28,27.9-28c6.3,0,10.9,2.2,13.8,4.6 c3.3-0.3,5.6-2.6,6-4.6h0.9l0.6,19.3l-1,0C611.4,358,600.6,353.1,592.4,353.1z"></path> <path class="st1" d="M667.3,389.7c0,10.8-9.7,18.6-19.9,18.6c-10.3,0-19.9-7.8-19.9-18.6c0-10.9,9.7-18.7,19.9-18.7 C657.6,371,667.3,378.7,667.3,389.7z M647.4,371.8c-8.9,0-11.9,8.4-11.9,17.4c0,10.2,3.3,18.2,11.9,18.2c8.5,0,11.8-8,11.8-18 C659.2,380.3,656.3,371.8,647.4,371.8z"></path> <path class="st1" d="M723.2,406.4v0.9h-20.9v-0.9h6.6v-25.7c0-5.7-2.6-8.1-6.6-8.1c-8,0-11.4,9.8-11.4,14.6v19.2h6.6v0.9h-21v-0.9 h7v-33.6h-7V372c5.9,0,10-0.2,14.3-1v11.5c1.4-4.9,4.9-11.5,13.8-11.5c7.4,0,11.6,4.6,11.6,12.6v22.8H723.2z"></path> <path class="st1" d="M745.5,371.8c-4.9,0-8.4,2.5-8.4,5.9c0,4.2,4.8,6,11.8,8.1c7.1,2.1,13.3,4.2,13.3,11.1 c0,6.7-6,11.3-13.4,11.3c-4.5,0-7.8-1.7-10.1-3.6c-1.9,0.4-3.5,1.3-4.2,3.1h-0.8l-0.7-12.6l1,0c0.7,5.3,6.4,12.2,14.8,12.2 c5.6,0,9.3-2.8,9.3-6.9c0-4.6-4.4-6.1-11.9-8.2c-7.4-2.2-12.4-5.4-12.4-11.5c0-6.6,5.9-9.9,11.8-9.9c4.2,0,7.3,1.7,8.8,2.8 c2.2,0,3.8-1.1,4.5-2.8h0.8l0.7,12.1l-1,0C758.3,376.9,752.4,371.8,745.5,371.8z"></path> <path class="st1" d="M817.7,406.4v0.9c-5.9,0-10,0.2-14.3,0.7v-9.7c-1.2,3.7-5,10-13.3,10c-8.4,0-12.2-5.9-12.2-13.5v-22h-7V372 c5.9,0,10-0.2,14.3-1v27.5c0,5.6,2.7,8.2,7.2,8.2c6.4,0,10.4-7.2,11-11.1v-22.6h-7V372c5.9,0,10-0.2,14.4-1v35.5H817.7z"></path> <path class="st1" d="M845.9,406.4v0.9h-21.3v-0.9h7v-51.9h-7v-0.9c5.9,0,10-0.2,14.3-1v53.8H845.9z"></path> <path class="st1" d="M877.6,403.9c-1.7,2.3-4.5,4.3-8.9,4.3c-7.1,0-9.5-4.5-9.5-11.3v-24.1h-6.5V372h6.5v-6.5 c2.6-0.7,5.9-3,7.4-5.1V372h10.7v0.9h-10.7v28.3c0,4.2,1.9,5.7,4.4,5.7c2.7,0,4.8-1.9,5.9-3.3L877.6,403.9z"></path> <path class="st1" d="M925.8,404.3c-1.4,2.1-3.9,3.9-7.4,3.9c-4.5,0-6.5-2.7-6.7-6.2c-1.3,2.9-6.1,6.2-12.1,6.2 c-5.5,0-12.4-2.6-12.4-9.2c0-4.8,3.3-6.6,10.5-8.2c7-1.6,14.1-3.5,14.1-10.6c0-4.7-3.1-8.2-10.1-8.2c-7,0-10.9,3.4-10.9,6.9 c0.4-1.5,1.7-2.8,3.9-2.8c2.4,0,4,1.6,4,3.6c0,2-1.6,3.7-4.1,3.7c-2.5,0-4.7-1.6-4.7-4.5c0-4.5,5.2-7.9,13.1-7.9 c10,0,16,5.1,16,14.4v19.1c0,1.2,0.7,2,2.1,2c1.5,0,3-1,4.1-2.8L925.8,404.3z M897.1,391.8c-1.4,1-2.5,3.3-2.5,6.8 c0,6.1,3.6,8.2,7.4,8.2c5.4,0,9.1-4.3,9.6-6.6v-15.8C909.7,388.3,904.9,390.2,897.1,391.8z"></path> <path class="st1" d="M979.6,406.4v0.9h-20.9v-0.9h6.6v-25.7c0-5.7-2.6-8.1-6.6-8.1c-8,0-11.4,9.8-11.4,14.6v19.2h6.6v0.9h-21v-0.9 h7v-33.6h-7V372c5.9,0,10-0.2,14.3-1v11.5c1.4-4.9,4.9-11.5,13.8-11.5c7.4,0,11.6,4.6,11.6,12.6v22.8H979.6z"></path> <path class="st1" d="M1008.8,403.9c-1.7,2.3-4.5,4.3-8.9,4.3c-7.1,0-9.5-4.5-9.5-11.3v-24.1h-6.5V372h6.5v-6.5 c2.6-0.7,5.9-3,7.4-5.1V372h10.7v0.9h-10.7v28.3c0,4.2,1.9,5.7,4.4,5.7c2.7,0,4.8-1.9,5.9-3.3L1008.8,403.9z"></path> </g> </g> </svg> 