<svg id="Layer_1" data-name="Layer 1" xmlns="http://www.w3.org/2000/svg" viewBox="0 0 101.18 102.35"><defs><style>.cls-1{fill:#f8931f;}</style></defs><path class="cls-1" d="M59.19,48.07a8,8,0,1,1-8-8A8,8,0,0,1,59.19,48.07Z"/><path class="cls-1" d="M69.94,33.86a8,8,0,0,0-4.57-4.57,13.19,13.19,0,0,0-4.48-.83c-2.54-.12-3.3-.14-9.73-.14s-7.2,0-9.74.14a13.06,13.06,0,0,0-4.47.83,7.3,7.3,0,0,0-2.77,1.8,7.53,7.53,0,0,0-1.81,2.77,13.37,13.37,0,0,0-.83,4.47c-.11,2.54-.14,3.31-.14,9.74s0,7.19.14,9.74a13.43,13.43,0,0,0,.83,4.47,7.53,7.53,0,0,0,1.81,2.77A7.3,7.3,0,0,0,37,66.85a13.31,13.31,0,0,0,4.47.83c2.54.12,3.3.14,9.74.14s7.19,0,9.73-.14a13.45,13.45,0,0,0,4.48-.83,8,8,0,0,0,4.57-4.57,13.43,13.43,0,0,0,.83-4.47c.11-2.55.14-3.31.14-9.74s0-7.2-.14-9.74A13.37,13.37,0,0,0,69.94,33.86ZM51.16,60.44A12.37,12.37,0,1,1,63.53,48.07,12.37,12.37,0,0,1,51.16,60.44ZM64,38.1a2.89,2.89,0,1,1,2.89-2.89A2.89,2.89,0,0,1,64,38.1Z"/><path class="cls-1" d="M51.16,6.11a42,42,0,1,0,42,42A42,42,0,0,0,51.16,6.11ZM75.1,58A17.36,17.36,0,0,1,74,63.85a12.31,12.31,0,0,1-7,7.05A17.93,17.93,0,0,1,61.09,72c-2.57.11-3.39.14-9.93.14s-7.37,0-9.94-.14a18,18,0,0,1-5.85-1.12,12,12,0,0,1-4.26-2.78,11.74,11.74,0,0,1-2.78-4.27A17.36,17.36,0,0,1,27.21,58c-.12-2.57-.15-3.39-.15-9.93s0-7.37.15-9.93a17.36,17.36,0,0,1,1.12-5.85A11.65,11.65,0,0,1,31.11,28a11.83,11.83,0,0,1,4.26-2.78,17.72,17.72,0,0,1,5.85-1.12C43.79,24,44.61,24,51.16,24s7.36,0,9.93.14a17.67,17.67,0,0,1,5.85,1.12,12.27,12.27,0,0,1,7,7.05,17.36,17.36,0,0,1,1.12,5.85c.12,2.56.15,3.39.15,9.93S75.22,55.43,75.1,58Z"/></svg>