<svg id="Layer_1" data-name="Layer 1" xmlns="http://www.w3.org/2000/svg" viewBox="0 0 101.18 102.35"><defs><style>.cls-1{fill:#f8931f;}</style></defs><path class="cls-1" d="M50.59,7.6A43.58,43.58,0,1,0,94.17,51.18,43.58,43.58,0,0,0,50.59,7.6ZM37.92,73.48H27.31V41.55H37.92Zm-5.3-36.3h-.07c-3.56,0-5.87-2.45-5.87-5.51s2.38-5.52,6-5.52,5.86,2.39,5.93,5.52S36.32,37.18,32.62,37.18ZM76.2,73.48H65.58V56.39c0-4.29-1.53-7.22-5.37-7.22a5.81,5.81,0,0,0-5.45,3.89,7.25,7.25,0,0,0-.35,2.59V73.48H43.8s.14-28.94,0-31.93H54.41v4.52A10.54,10.54,0,0,1,64,40.8c7,0,12.22,4.56,12.22,14.37Z"/></svg>