<?xml version="1.0" encoding="UTF-8"?> <!-- Generator: Adobe Illustrator 25.0.1, SVG Export Plug-In . SVG Version: 6.00 Build 0) --> <svg xmlns="http://www.w3.org/2000/svg" xmlns:xlink="http://www.w3.org/1999/xlink" version="1.1" id="Capa_1" x="0px" y="0px" viewBox="0 0 200 200" style="enable-background:new 0 0 200 200;" xml:space="preserve"> <style type="text/css"> .st0{fill:#F5963C;} .st1{fill:#FFFFFF;} </style> <circle class="st0" cx="100" cy="100" r="96.4"></circle> <path class="st1" d="M156.5,71.6c0-5.7-4.7-10.4-10.4-10.4c-4.9,0-9,3.4-10.1,8h-22.8c-0.7-5-5-8.9-10.3-8.9c-3.8,0-7.2,2.1-9,5.2 L64,52.1c0.1-0.7,0.2-1.4,0.2-2.1c0-5.7-4.7-10.4-10.4-10.4S43.5,44.3,43.5,50s4.7,10.4,10.4,10.4c3.9,0,7.4-2.2,9.1-5.5l29.9,13.4 c-0.2,0.8-0.3,1.6-0.3,2.4c0,2.2,0.7,4.2,1.8,5.8L71,100.9c-1.6-1.1-3.6-1.8-5.8-1.8c-5.7,0-10.4,4.7-10.4,10.4s4.7,10.4,10.4,10.4 c0.8,0,1.7-0.1,2.5-0.3l6.4,21.3c-3.2,1.8-5.3,5.2-5.3,9.1c0,5.7,4.7,10.4,10.4,10.4s10.4-4.7,10.4-10.4s-4.7-10.4-10.4-10.4 c-0.8,0-1.5,0.1-2.2,0.3l-6.4-21.4c2.9-1.7,4.9-4.8,5.1-8.3l14.7-1.1c0.5,5.3,4.9,9.5,10.3,9.5c3.9,0,7.3-2.1,9-5.3l19,16 c-0.6,1.3-1,2.8-1,4.4c0,5.7,4.7,10.4,10.4,10.4s10.4-4.7,10.4-10.4c0-5-3.5-9.1-8.2-10.1l6.7-41.5 C152.2,81.6,156.5,77.1,156.5,71.6z M53.8,57.4c-4.1,0-7.4-3.3-7.4-7.4s3.3-7.4,7.4-7.4s7.4,3.3,7.4,7.4S57.9,57.4,53.8,57.4z M86.5,150c0,4.1-3.3,7.4-7.4,7.4s-7.4-3.3-7.4-7.4s3.3-7.4,7.4-7.4S86.5,145.9,86.5,150z M134.6,123.8l-25.1-45 c2-1.6,3.3-3.9,3.7-6.6h22.6c0.3,4.6,3.6,8.5,8,9.5l-6.7,41.6C136.2,123.3,135.4,123.5,134.6,123.8z M146.2,64.2 c4.1,0,7.4,3.3,7.4,7.4s-3.3,7.4-7.4,7.4s-7.4-3.3-7.4-7.4S142.1,64.2,146.2,64.2z M103,63.3c4.1,0,7.4,3.3,7.4,7.4 s-3.3,7.4-7.4,7.4c-4.1,0-7.4-3.3-7.4-7.4S98.9,63.3,103,63.3z M65.2,116.9c-4.1,0-7.4-3.3-7.4-7.4s3.3-7.4,7.4-7.4s7.4,3.3,7.4,7.4 S69.3,116.9,65.2,116.9z M100.6,115.4c-4.1,0-7.4-3.3-7.4-7.4s3.3-7.4,7.4-7.4s7.4,3.3,7.4,7.4S104.6,115.4,100.6,115.4z M110.7,110.1c0.1-0.7,0.2-1.4,0.2-2.1c0-5.7-4.7-10.4-10.4-10.4c-5,0-9.2,3.6-10.2,8.3l-15.1,1.2c-0.4-1.6-1.1-3-2.1-4.2l23.2-24.2 c1.8,1.5,4.1,2.3,6.6,2.3c1.4,0,2.7-0.3,4-0.8l25,44.8c-0.6,0.4-1.2,0.9-1.7,1.5L110.7,110.1z M145.3,133.6c0,4.1-3.3,7.4-7.4,7.4 s-7.4-3.3-7.4-7.4s3.3-7.4,7.4-7.4S145.3,129.5,145.3,133.6z"></path> </svg> 