<?xml version="1.0" encoding="UTF-8"?> <!-- Generator: Adobe Illustrator 25.0.1, SVG Export Plug-In . SVG Version: 6.00 Build 0) --> <svg xmlns="http://www.w3.org/2000/svg" xmlns:xlink="http://www.w3.org/1999/xlink" version="1.1" id="Capa_1" x="0px" y="0px" viewBox="0 0 200 200" style="enable-background:new 0 0 200 200;" xml:space="preserve"> <style type="text/css"> .st0{fill:#F5963C;} .st1{fill:#FFFFFF;} </style> <circle class="st0" cx="100" cy="100" r="96.4"></circle> <path class="st1" d="M51.7,147.6c-5,0-9.1-4.1-9.2-9.2V75.8c0-5,4.1-9.1,9.2-9.2h31.1v-4.5c0-6.1,4.9-11,11-11h12.4 c6.1,0,11,4.9,11,11v4.5h31.1c5,0,9.1,4.1,9.2,9.2v62.6c0,5-4.1,9.1-9.2,9.2H51.7z M46,138.4c0,3.1,2.6,5.7,5.7,5.7h96.7 c3.1,0,5.7-2.6,5.7-5.7V94.4l-2.3,2.1c-3.2,3-7.4,4.6-11.8,4.6h-32v4.5c0,4.4-3.6,7.9-7.9,7.9s-7.9-3.6-7.9-7.9v-4.5h-32 c-4.4,0-8.6-1.6-11.9-4.6L46,94.4V138.4z M95.5,105.6c0,2.5,2,4.5,4.5,4.5c2.5,0,4.5-2,4.5-4.5v-4.5h-8.9V105.6z M51.7,70.1 c-3.1,0-5.7,2.6-5.7,5.7v7.7c0,7.8,6.4,14.2,14.2,14.2h79.7c7.8,0,14.2-6.4,14.2-14.2v-7.7c0-3.1-2.6-5.7-5.7-5.7H51.7z M93.8,54.6 c-4.2,0-7.6,3.4-7.6,7.6v4.5h27.5v-4.5c0-4.2-3.4-7.6-7.6-7.6H93.8z"></path> </svg> 