<?xml version="1.0" encoding="UTF-8"?> <!-- Generator: Adobe Illustrator 25.0.1, SVG Export Plug-In . SVG Version: 6.00 Build 0) --> <svg xmlns="http://www.w3.org/2000/svg" xmlns:xlink="http://www.w3.org/1999/xlink" version="1.1" id="Capa_1" x="0px" y="0px" viewBox="0 0 200 200" style="enable-background:new 0 0 200 200;" xml:space="preserve"> <style type="text/css"> .st0{fill:#F5963C;} .st1{fill:#FFFFFF;} </style> <circle class="st0" cx="100" cy="100" r="96.4"></circle> <g> <path class="st1" d="M52.8,125.8c-0.3,0-0.5,0-0.8-0.1c-0.1,0-0.1-0.1-0.2-0.1l-0.2-0.2l-0.2-0.1c-0.1,0-0.2-0.1-0.3-0.2 l-20.8-18.8c-0.5-0.4-0.7-1-0.8-1.6c0-0.6,0.2-1.2,0.6-1.7c0.5-0.5,1.1-0.7,1.8-0.7c0.6,0,1.2,0.2,1.6,0.6l17,15.6l0-39.1 c-0.1-7.3,2.8-14.2,8.1-19.4c5.3-5.2,12.3-8.1,19.8-8.2h50.9c1.3,0,2.4,1,2.4,2.3c0,1.3-1.1,2.3-2.4,2.3H78.3l-0.3,0 c-12.9,0.3-23.1,10.7-22.8,23.2l0,38.6l17-15.4c0.4-0.4,1-0.6,1.6-0.6c0.7,0,1.3,0.3,1.8,0.7c0.4,0.5,0.7,1,0.6,1.7 c0,0.6-0.3,1.2-0.8,1.6l-20.8,18.8c-0.1,0.1-0.2,0.1-0.3,0.2l-0.3,0.1l-0.3,0.2c-0.1,0-0.1,0.1-0.2,0.1 C53.3,125.8,53.1,125.8,52.8,125.8z"></path> <path class="st1" d="M70.8,148.2c-1.3,0-2.4-1-2.4-2.3c0-1.3,1.1-2.3,2.4-2.3l51.1,0c12.4,0,22.6-9.8,22.8-21.9v-37L127.9,100 c-0.4,0.4-1,0.6-1.6,0.6c-0.7,0-1.3-0.3-1.8-0.7c-0.4-0.5-0.7-1-0.6-1.7c0-0.6,0.3-1.2,0.8-1.6l20.8-18.8c0.1-0.1,0.2-0.1,0.3-0.2 l0.2-0.1l0.2-0.2c0.1,0,0.1-0.1,0.2-0.1c0.2-0.1,0.5-0.1,0.8-0.1c0.3,0,0.5,0,0.8,0.1c0.1,0,0.1,0.1,0.2,0.1l0.2,0.2l0.2,0.1 c0.1,0,0.2,0.1,0.3,0.2l19.9,18l0.9,0.9c0.5,0.4,0.7,1,0.8,1.6s-0.2,1.2-0.6,1.7c-0.5,0.5-1.1,0.7-1.8,0.7l0,0 c-0.6,0-1.2-0.2-1.6-0.6l-17-15.3v36.9c-0.2,14.6-12.6,26.5-27.6,26.5L70.8,148.2z"></path> </g> </svg> 