<?xml version="1.0" encoding="UTF-8"?> <!-- Generator: Adobe Illustrator 25.0.1, SVG Export Plug-In . SVG Version: 6.00 Build 0) --> <svg xmlns="http://www.w3.org/2000/svg" xmlns:xlink="http://www.w3.org/1999/xlink" version="1.1" id="Capa_1" x="0px" y="0px" viewBox="0 0 200 200" style="enable-background:new 0 0 200 200;" xml:space="preserve"> <style type="text/css"> .st0{fill:#F5963C;} .st1{fill:#FFFFFF;} </style> <circle class="st0" cx="100" cy="100" r="96.4"></circle> <path class="st1" d="M100,157.6c-1.9,0-3.9-0.1-5.8-0.3c-29.4-3.2-51.6-27.7-51.6-57.2c0-31.8,25.9-57.7,57.7-57.7 c31.5,0,57.1,25.9,57.1,57.7c0,12.8-3.9,24.8-11.1,33.9C135.4,149,118.5,157.6,100,157.6z M101.6,154.1l0.8-0.2 c11.9-2.3,18.7-19.7,21-27.1l0.2-0.7l-0.8-0.1c-6.1-1-13.3-2.1-20.6-2.1h-0.7V154.1z M97.7,124c-7.1,0-13.8,1-20.1,2.1l-0.7,0.1 l0.2,0.7c1.1,4.1,7.1,24.6,20.5,27.1l0.8,0.2V124H97.7z M73,127.6c-6,1.6-10.9,3.9-14.5,5.7l-0.8,0.4l0.5,0.7 c7.3,8.9,16.6,15,27.5,18.1l2.5,0.7l-1.8-1.8c-6.4-6.4-10.4-16.2-12.6-23.3l-0.2-0.6L73,127.6z M126.2,128.1 c-1.4,5.6-4.9,16.1-12.6,23.2l0.6,1.1c10.9-3,19.9-8.9,27.5-18.1l0.5-0.6l-0.7-0.4c-3.7-2.1-9-4.2-14.5-5.7l-0.7-0.2L126.2,128.1z M45.9,102.2c0.5,9.9,3.5,19.2,9.3,28.5l0.3,0.5l0.6-0.3c5.5-3.1,11-5.3,16.2-6.6l0.6-0.2l-0.1-0.6c-1.7-7.4-2.5-14.4-2.5-21.3v-0.7 H45.8L45.9,102.2z M130.3,102.1c-0.5,7.9-1.6,15.2-2.6,21.4l-0.1,0.6l0.6,0.2c6.2,1.7,12,4.5,15.7,6.6l0.5,0.3l0.3-0.5 c5.8-8.4,8.8-17.7,9.3-28.5l0-0.7h-23.8L130.3,102.1z M73.5,102.2c0,7.3,1,14.5,2.1,20.6l0.1,0.7l0.7-0.2c7.4-1.7,14.4-2.5,21.3-2.5 h0.7v-19.3H73.5V102.2z M101.6,120.7h0.7c6.9,0,13.9,0.8,21.3,2.5l0.6,0.1l0.2-0.6c1.6-6.2,2.1-13.5,2.6-20.6l0.1-0.7h-25.4V120.7z M143.9,69.3c-4.5,2.8-10.2,5.2-15.7,6.6l-0.6,0.2l0.1,0.6c1.5,6.6,2,13.9,2.5,20.9l0,0.6h23.8l0-0.7c-0.5-10.3-3.7-19.7-9.3-28 l-0.4-0.5L143.9,69.3z M101.6,98.2h25.4l-0.1-0.7c-0.5-6.6-1-13.4-2.6-19.6l-0.2-0.6l-0.6,0.1c-7.4,1.7-14.4,2.5-21.3,2.5h-0.7V98.2 z M75.5,78c-1,6.2-2.1,12.9-2.1,19.6v0.7h24.9V80h-0.7c-6.9,0-13.9-0.8-21.3-2.5l-0.7-0.2L75.5,78z M55.2,69.5 c-5.7,8.3-8.8,17.7-9.3,28l0,0.7h24.4v-0.7c0-6.5,0.9-13.5,2.5-20.8l0.2-0.7l-0.7-0.2c-6.5-1.5-11.6-4.1-16.2-6.6L55.5,69L55.2,69.5 z M101.6,76.7h0.7c8.5,0,15.9-1.4,20.6-2.6l0.7-0.2l-0.2-0.7c-3-10.8-9.5-23.6-18.8-27.1l-0.1,0h-2.8V76.7z M95.4,46.3 c-7.5,2.8-13.7,11.6-18.8,27L76.4,74l0.7,0.2c7.6,1.8,14.2,2.6,20.6,2.6h0.7V46.2h-2.8L95.4,46.3z M114.6,49.4 c6.2,6.2,9.8,15.7,12.1,23.3l0.2,0.6l0.6-0.2c6-1.8,10.8-3.9,14-6.2l0.6-0.4l-0.5-0.6c-6.7-8.3-16.1-14.5-26.4-17.6L114.6,49.4z M84.7,48.3C74.4,51.4,65,57.6,58.3,65.9l-0.5,0.6l0.6,0.4c4.3,2.7,9.1,4.7,14.5,6.2l0.7,0.2l0.2-0.7c2.3-9.1,6.6-17.8,11.6-23.2 l1.7-1.8L84.7,48.3z"></path> </svg> 